<?xml version="1.0" encoding="UTF-8" standalone="no"?>
<svg
   xmlns:dc="http://purl.org/dc/elements/1.1/"
   xmlns:cc="http://creativecommons.org/ns#"
   xmlns:rdf="http://www.w3.org/1999/02/22-rdf-syntax-ns#"
   xmlns:svg="http://www.w3.org/2000/svg"
   xmlns="http://www.w3.org/2000/svg"
   style="fill:none"
   id="svg867"
   version="1.1"
   viewBox="0 0 24.4429 21.909599"
   height="21.909599"
   width="24.4429">
  <metadata
     id="metadata873">
    <rdf:RDF>
      <cc:Work
         rdf:about="">
        <dc:format>image/svg+xml</dc:format>
        <dc:type
           rdf:resource="http://purl.org/dc/dcmitype/StillImage" />
        <dc:title></dc:title>
      </cc:Work>
    </rdf:RDF>
  </metadata>
  <defs
     id="defs871" />
  <path
     style="fill:#fd366e"
     id="path863"
     d="m 24.4429,16.4322 v 5.4774 h -13.691 c -3.98872,0 -7.47146,-2.2029 -9.3348,-5.4774 C 1.14622,15.9561 0.909137,15.4567 0.710264,14.9383 0.319864,13.9225 0.0744552,12.8325 0,11.6952 V 10.2143 C 0.0161646,9.96089 0.0416361,9.70942 0.0749451,9.46095 0.143032,8.95105 0.245898,8.45211 0.381093,7.96711 1.66006,3.36909 5.81877,0 10.7519,0 15.6851,0 19.8433,3.36909 21.1223,7.96711 H 15.2682 C 14.3072,6.4683 12.6437,5.4774 10.7519,5.4774 8.86017,5.4774 7.19668,6.4683 6.23562,7.96711 5.9427,8.42274 5.71542,8.92516 5.56651,9.46095 5.43425,9.93599 5.36371,10.4369 5.36371,10.9548 c 0,1.57 0.64953,2.9852 1.69092,3.9835 0.96498,0.9267 2.26598,1.4939 3.69727,1.4939 z" />
  <path
     style="fill:#fd366e"
     id="path865"
     d="m 24.4429,9.46094 v 5.47736 h -9.9937 c 1.0414,-0.9983 1.6909,-2.4135 1.6909,-3.9835 0,-0.5179 -0.0705,-1.01882 -0.2028,-1.49386 z" />
</svg>
