<?xml version="1.0" encoding="UTF-8" standalone="no"?>
<svg
   xmlns:dc="http://purl.org/dc/elements/1.1/"
   xmlns:cc="http://creativecommons.org/ns#"
   xmlns:rdf="http://www.w3.org/1999/02/22-rdf-syntax-ns#"
   xmlns:svg="http://www.w3.org/2000/svg"
   xmlns="http://www.w3.org/2000/svg"
   style="fill:none"
   id="svg956"
   version="1.1"
   viewBox="0 0 25.5238 29.7446"
   height="29.7446"
   width="25.5238">
  <metadata
     id="metadata962">
    <rdf:RDF>
      <cc:Work
         rdf:about="">
        <dc:format>image/svg+xml</dc:format>
        <dc:type
           rdf:resource="http://purl.org/dc/dcmitype/StillImage" />
        <dc:title></dc:title>
      </cc:Work>
    </rdf:RDF>
  </metadata>
  <defs
     id="defs960" />
  <path
     style="fill:#080808"
     id="path928"
     d="M 0,29.7446 V 0 h 10.4634 c 3.2513,0 5.9797,0.709774 8.2592,2.16717 2.2421,1.42 3.961,3.28839 5.0823,5.56777 1.1209,2.27936 1.7189,4.67096 1.7189,7.13736 0,2.5038 -0.5606,4.895 -1.7189,7.1374 -1.1213,2.2794 -2.8402,4.1104 -5.0823,5.5678 -2.2426,1.42 -5.0079,2.1671 -8.2592,2.1671 H 1.94333 c -0.57074,0 -1.437198,0 -1.94333,0 z" />
  <path
     style="fill:#3ddc97"
     id="path930"
     d="M 4.22284,6.68896 H 14.8359 c 0.8969,0 1.6441,0.74718 1.6441,1.64397 0,0.8968 -0.7472,1.64442 -1.6441,1.64442 H 4.22284 Z" />
  <path
     style="fill:#f12a1f"
     id="path932"
     d="M 4.22284,19.6928 H 17.2277 c 0.8968,0 1.644,0.7472 1.644,1.644 0,0.8968 -0.7472,1.6444 -1.644,1.6444 H 4.22284 Z" />
  <path
     style="fill:#ffb400"
     id="path934"
     d="m 4.22284,13.1909 h 7.36186 c 0.8969,0 1.6441,0.7472 1.6441,1.644 0,0.8968 -0.7472,1.6444 -1.6441,1.6444 H 4.22284 Z" />
</svg>
